<svg id="Ebene_1" data-name="Ebene 1" xmlns="http://www.w3.org/2000/svg" viewBox="0 0 591.4885 157.4039"><defs><style>.cls-1,.cls-2{fill:#fff;}.cls-2{fill-rule:evenodd;}</style></defs><title>partner2</title><path class="cls-1" d="M87.6174,90.0233V61.68l-30.698-.0352V74.6161L70.7,74.6137v7.7905c-5.9426,4.2676-14.1723,6.0972-20.42,6.0972-15.696,0-29.105-11.4285-29.105-25.753.1515-14.1741,12.8007-25.7529,28.0375-25.7529,15.3931,0,32.0021,9.4463,36.2685,11.8841V33.7943A65.1244,65.1244,0,0,0,48.9088,22.3658c-24.5339,0-44.0383,18.2842-44.0383,40.3826,0,22.096,19.9629,40.5353,45.1046,40.5353C62.93,103.2837,75.425,99.4718,87.6174,90.0233Z" transform="translate(-1.7917 -3)"/><polygon class="cls-1" points="145.791 99.062 145.791 83.824 110.591 83.824 110.591 66.724 130.858 66.724 130.858 52.247 110.591 52.247 110.591 39.43 142.745 39.43 142.591 24.19 94.285 24.19 94.285 99.062 145.791 99.062"/><polygon class="cls-1" points="439.863 99.062 439.863 83.824 413.462 83.824 413.614 27.934 397.157 27.934 397.157 99.062 439.863 99.062"/><path class="cls-2" d="M494.7194,76.0629h-23.577l11.5694-22.2276Zm29.0644,25.9995L484.215,26.5746h-2.89l-39.3175,75.4878h17.084L465.8861,89.06h33.8747l6.9425,13.0021Z" transform="translate(-1.7917 -3)"/><path class="cls-1" d="M592.97,102.0624v-78.48H576.5121v43.713a66.373,66.373,0,0,0,.4556,7.1328L533.3886,23.5824H525.77v78.48h16.4581V60.3129c0-4.4014-.3041-8.0417-.3041-8.0417l43.2726,49.7912Z" transform="translate(-1.7917 -3)"/><polygon class="cls-1" points="308.843 26.278 308.643 24.577 307.843 24.176 306.844 21.975 306.544 23.077 306.443 23.777 304.143 23.676 304.242 26.076 306.743 25.576 307.443 25.376 306.844 26.978 308.843 26.278"/><polygon class="cls-1" points="297.041 11.773 296.24 8.071 293.54 7.071 287.838 6.871 285.338 6.27 281.938 7.571 279.536 9.572 279.885 9.774 279.484 10.107 281.195 11.096 283.729 11.781 284.509 13.632 284.471 13.766 284.494 13.82 284.148 15.028 281.737 17.975 281.743 18.067 281.497 18.368 281.683 21.137 284.898 19.186 289.382 16.752 289.439 16.692 289.839 16.475 291.244 14.987 295.232 14.801 295.367 14.496 295.841 14.474 297.041 11.773"/><polygon class="cls-1" points="249.286 55.988 249.03 55.988 248.99 55.937 248.931 55.937 247.309 53.838 243.686 53.169 239.508 52.295 239.592 53.106 238.526 52.883 238.825 55.784 242.427 59.384 243.198 58.511 243.215 58.527 243.957 57.685 247.928 57.886 248.451 57.102 248.54 57.106 249.286 55.988"/><path class="cls-1" d="M289.03,3a58.6651,58.6651,0,1,0,58.6657,58.6645A58.664,58.664,0,0,0,289.03,3ZM269.1842,17.402l-.1943,2.1372-.68.4861-4.372-.7755h-1.4573l-.5837-1.6517.0027,0-.0655-.1854,4.0943-.2936,3.2171.0963-.017.1851Zm-6.2779,5.1764.78-1.2683h3.314l1.3639.586-.1859.073.2281.0979-2.72,1.068L264.52,24.5929l-.8738.5836-1.0686,1.2612-1.651-.5813-.0044-.1372-.0621-.0219-.0991-3.1189Zm71.5461,68.1329L331.1386,93.83l-.9936,3.3115.1151,1.4515a55.351,55.351,0,0,1-96.5816-36.9289l.0012-.2678.1535.1123,0-.0676.7038.5144h1.6613l1.7544.4872,3.2172.4874-.0044.019.1341.02-.9718,4.1789,1.1661,2.3317,2.7686.6679,1.6839.0948,0,.0089.1142.0063.0963,2.72-.2912,3.3033-1.943,5.733,1.1656,4.1766,3.4965,4.2756,7.3853,1.5536,6.9955,8.55,4.3731,4.6655,2.72,4.1771,3.3034,1.4579,2.9135,1.1655,3.3033,2.1379,2.5186.3592-1.8409-1.402-3.9-2.1443-1.6569-1.852.0271-.1038-.0054-.006.5663-2.174.3866-4.8314-.0968-2.1443.0214-.0215-.0026-.059.9717-.9717,2.604-2.4127-.2806-1.3122-.0974-2.048.0092-.0491,0-.01.5831-3.1095,3.5868-4.1652-2.3268-4.5565-2.2418.2923-2.2418-.78-6.2385-1.7557-2.924-5.1658-5.264-1.7556-1.1651-3.303-4.4059-.6709-.039-.0159L256.084,68l-5.1881-2.1134-2.7943.1923L245.0889,68.12l-.1171-.0219,0,0-2.704-.5079-.2876-.0541h0l-.1279-.024.7808-4.776-1.1707-1.0722-.9742-1.462-.4873-.5837L238.8661,57.82h-2.5213l-.082-.0559h-.0642l-2.1437-1.46,1.8514-3.7062,2.8259-3.409,5.07-.4885.0286.0941.0929-.009.68,2.2335a13.1159,13.1159,0,0,0,1.5542,2.6235c.2783.139.5043.7208.6118,1.0439l.8343-2.9645.0975-4.0949,1.266-2.8266,7.4087-3.7026,3.0221-3.3163,4.2887-2.2406s.02.0561.0471.132l.01-.0052s.0813.2434.2081.5432c.2151.484.5257,1.0426.807.987.4874-.0987,3.8988-1.657,3.8988-1.657l-.0932-1.781-.8374-1.3956.0194-.0315-.0635-.1058.78-1.266,2.2417.7774,1.657,2.8266,1.8519-.6811,1.0526-5.1714-1.2235-1.7894.011-.1044-.035-.0512.39-3.7026.3887-1.852,4.1918-1.5606.1852-1.4854-.3714-2.5131.0167-.02-.0254-.1725.9742-1.1685-.0912-2.8189-1.3605-.5813-2.2241-1.7527-.5931.1966-.8143.8156,1.38,2.4825-.0909.0073.1079.1942-2.4284.1937-4.9557.3882L263.258,15.07l.1716-.2642-.23.07,1.2666-1.9494,1.35-1.5243A54.7316,54.7316,0,0,1,274.5,8.2387l.4568-.1209A55.4928,55.4928,0,0,1,322.0281,17.22l-.2043.1333c.0243.0181.05.0348.0739.0529l-.4415.2877-1.0686-.4862-6.8654-.097-1.1964,3.2248-1.17,2.1443,1.17,3.314,2.7292,2.0479-.2924.9759-.0649.0077-.042.1409-2.43.2894-2.5248,1.9435-1.4666,2.1994,1.8507,1.5573-.0987,1.3658-.0835.0122-.008.1129-3.9122.5714-.2861,4.3706.9759,2.3393,2.533.2936,2.9332-1.1346.3783-2.8469.0937-.0582.0073-.0552,3.6064-2.2406.9371.8009L317.98,41l-.1528,1.31.889-.5766.5258.03-.2909-.3226-.5778-3.3239.1411.0032-.0212-.1224,2.0467.0458,1.4362,3.2505.1939.9748,1.7526.6452.5454-1.9975.1169-.0271.0229-.0839,1.2671-.2924,1.462,2.4379,3.12.7774,2.5329.1973,1.462-.88,1.17-.5838,1.0709,2.8266-1.0709,1.7557-.1273.0124-.0476.078-7.9667.7757-3.5958-.1938-.8749-2.3316-1.65-1.07-3.11.0982-3.2071.1936-2.331-.0957-2.526.4856-2.76,2.5683-2.0222,2.7931-.027.0106-.05.07-3.1626,1.2442-1.0485,2.4779-2.5331,5.7483-.2923,4.8734.9746,4.4859,1.9482,1.3634,4.29,2.9252,2.0194,1.1547,4.9948-1.3437.0693.0039.0317-.0085,5.2634.29,2.1443,2.6317-.0975,5.07,1.0722,2.7291-.8761,4.2886-3.0227,2.8266-.0974,2.1443-.39,3.509-1.9493,3.6075-1.3647,4.581a2.5452,2.5452,0,0,0-.0734.9607.12.12,0,0,0,.0688.0105c.3875-.0964,7.3829-3.4977,7.3829-3.4977l6.608-5.4407,1.8459-2.5254,1.7474-1.75,3.2083-4.1777.9712-3.1091,1.8461-6.3142,4.177-3.4977,1.7063-1.6335c-.0188.0824-.042.1631-.0612.2453l.26-.2483a51.6577,51.6577,0,0,1-6.1957,15.38Z" transform="translate(-1.7917 -3)"/><polygon class="cls-1" points="326.512 41.737 325.279 40.915 324.663 41.262 323.776 40.669 323.207 40.989 323.207 41.323 324.55 41.355 324.55 41.69 326.512 41.737"/><path class="cls-1" d="M12.8635,158.525a6.5056,6.5056,0,0,1-4.71,1.72H1.83V141.407H8.1539a6.51,6.51,0,0,1,4.71,1.7191c1.9048,1.9059,1.8256,4.8957,1.8256,7.4358S14.7683,156.62,12.8635,158.525Zm-1.0051-14.3936A5.4129,5.4129,0,0,0,7.81,142.6763H3.2588v16.2984H7.81a5.4084,5.4084,0,0,0,4.0485-1.4549c1.5078-1.5348,1.4021-4.8676,1.4021-6.9579S13.3662,145.6661,11.8584,144.1314Z" transform="translate(-1.7917 -3)"/><path class="cls-1" d="M26.6983,143.0733V141.407h1.6669v1.6663Zm.1585,17.1721V147.4923h1.3493v12.7531Z" transform="translate(-1.7917 -3)"/><path class="cls-1" d="M41.38,154.16c0,3.2283,1.4555,5.0273,4.1541,5.0273a4.44,4.44,0,0,0,3.5194-1.5348l1.0052.7939a5.7871,5.7871,0,0,1-4.6039,1.9575c-3.5188,0-5.4242-2.2746-5.4242-6.5351,0-4.1007,1.9054-6.535,5.1066-6.535,3.1753,0,5.1066,2.3286,5.1066,6.218v.6082Zm7.0647-3.4924a3.6234,3.6234,0,0,0-6.6144,0,5.9142,5.9142,0,0,0-.45,2.4074h7.5144A5.9084,5.9084,0,0,0,48.445,150.6676Z" transform="translate(-1.7917 -3)"/><path class="cls-1" d="M76.0632,143.0733V141.407H77.73v1.6663Zm.1586,17.1721V147.4923h1.3493v12.7531Z" transform="translate(-1.7917 -3)"/><path class="cls-1" d="M98.6044,160.2454V152.334c0-2.46-1.2436-3.81-3.5189-3.81s-3.5987,1.4021-3.5987,3.81v7.9114H90.1375V147.4923h1.3493V149a5.1828,5.1828,0,0,1,7.144-.45,4.7926,4.7926,0,0,1,1.3228,3.5453v8.15Z" transform="translate(-1.7917 -3)"/><path class="cls-1" d="M120.1644,160.2454v-1.6405a4.23,4.23,0,0,1-3.7831,1.799,4.4592,4.4592,0,0,1-3.1225-1.1109c-1.2964-1.2965-1.6406-3.4137-1.6406-5.4242s.3442-4.1277,1.6406-5.4242a4.46,4.46,0,0,1,3.1225-1.1108,4.2291,4.2291,0,0,1,3.7831,1.799V141.407h1.35v18.8384Zm-3.5981-11.7209c-3.122,0-3.5982,2.6985-3.5982,5.3443s.4762,5.3444,3.5982,5.3444,3.5981-2.6987,3.5981-5.3444S119.6882,148.5245,116.5663,148.5245Z" transform="translate(-1.7917 -3)"/><path class="cls-1" d="M133.92,143.0733V141.407h1.6669v1.6663Zm.1586,17.1721V147.4923h1.3492v12.7531Z" transform="translate(-1.7917 -3)"/><path class="cls-1" d="M151.7777,160.2454h-1.3229l-4.6567-12.7531H147.28l3.8365,11.1655,3.8366-11.1655h1.4819Z" transform="translate(-1.7917 -3)"/><path class="cls-1" d="M166.6453,143.0733V141.407h1.6669v1.6663Zm.1584,17.1721V147.4923h1.3494v12.7531Z" transform="translate(-1.7917 -3)"/><path class="cls-1" d="M188.524,160.2454v-1.6405a4.231,4.231,0,0,1-3.7837,1.799,4.4589,4.4589,0,0,1-3.1224-1.1109c-1.2965-1.2965-1.6406-3.4137-1.6406-5.4242s.3441-4.1277,1.6406-5.4242a4.4594,4.4594,0,0,1,3.1224-1.1108,4.2306,4.2306,0,0,1,3.7837,1.799V141.407h1.3494v18.8384Zm-3.5987-11.7209c-3.1218,0-3.5986,2.6985-3.5986,5.3443s.4768,5.3444,3.5986,5.3444,3.5987-2.6987,3.5987-5.3444S188.0472,148.5245,184.9253,148.5245Z" transform="translate(-1.7917 -3)"/><path class="cls-1" d="M210.7463,160.2454v-1.5078a5.1826,5.1826,0,0,1-7.1439.45,4.7922,4.7922,0,0,1-1.3229-3.5453v-8.15h1.3493v7.9114c0,2.46,1.2435,3.81,3.5188,3.81s3.5987-1.4021,3.5987-3.81v-7.9114h1.3494v12.7531Z" transform="translate(-1.7917 -3)"/><path class="cls-1" d="M225.2687,154.16c0,3.2283,1.4555,5.0273,4.154,5.0273a4.44,4.44,0,0,0,3.52-1.5348l1.0052.7939a5.7873,5.7873,0,0,1-4.6039,1.9575c-3.5188,0-5.4242-2.2746-5.4242-6.5351,0-4.1007,1.9054-6.535,5.1066-6.535,3.1753,0,5.1066,2.3286,5.1066,6.218v.6082Zm7.0647-3.4924a3.6234,3.6234,0,0,0-6.6144,0,5.9125,5.9125,0,0,0-.45,2.4074h7.5144A5.9084,5.9084,0,0,0,232.3334,150.6676Z" transform="translate(-1.7917 -3)"/><path class="cls-1" d="M248.9465,160.2454c-2.0639,0-3.0692-1.3234-3.0692-3.3069V141.407h1.3494v15.5045c0,1.4292.45,2.1431,1.9581,2.1431h.9261v1.1908Z" transform="translate(-1.7917 -3)"/><path class="cls-1" d="M263.9719,160.2454c-2.0638,0-3.069-1.3234-3.069-3.3069V141.407h1.3492v15.5045c0,1.4292.45,2.1431,1.9582,2.1431h.926v1.1908Z" transform="translate(-1.7917 -3)"/><path class="cls-1" d="M275.9253,154.16c0,3.2283,1.4551,5.0273,4.1536,5.0273a4.44,4.44,0,0,0,3.52-1.5348l1.0052.7939A5.7873,5.7873,0,0,1,280,160.4039c-3.5188,0-5.4242-2.2746-5.4242-6.5351,0-4.1007,1.9054-6.535,5.1066-6.535,3.1753,0,5.1064,2.3286,5.1064,6.218v.6082Zm7.0642-3.4924a3.6233,3.6233,0,0,0-6.6143,0,5.9064,5.9064,0,0,0-.45,2.4074h7.514A5.9066,5.9066,0,0,0,282.99,150.6676Z" transform="translate(-1.7917 -3)"/><path class="cls-1" d="M322.1961,160.2454l-1.6406-4.5775h-8.7839l-1.6406,4.5775h-1.5348l6.932-18.8384h1.2707l6.932,18.8384Zm-6.0325-16.9338-3.9423,11.0869h7.8845Z" transform="translate(-1.7917 -3)"/><path class="cls-1" d="M341.2964,149.53a2.921,2.921,0,0,0-2.4085-1.0052c-2.1961,0-3.4126,1.7991-3.4126,3.8623v7.8586H334.126V147.4923h1.3493v1.6933a4.3681,4.3681,0,0,1,3.7309-1.8518,3.9888,3.9888,0,0,1,3.0684,1.2165Z" transform="translate(-1.7917 -3)"/><path class="cls-1" d="M355.7664,160.2454c-2.0116,0-3.07-1.4021-3.07-3.3339v-8.4141h-1.7461v-1.0051h1.7461v-4.075h1.3493v4.075H356.93v1.0051H354.046v8.4411c0,1.3223.6083,2.1161,1.9576,2.1161h.9265v1.1908Z" transform="translate(-1.7917 -3)"/><path class="cls-1" d="M390.396,160.2454v-1.6405a4.23,4.23,0,0,1-3.7837,1.799,4.4573,4.4573,0,0,1-3.1213-1.1109c-1.2964-1.2965-1.64-3.4137-1.64-5.4242s.3441-4.1277,1.64-5.4242a4.4577,4.4577,0,0,1,3.1213-1.1108,4.2294,4.2294,0,0,1,3.7837,1.799V141.407h1.3494v18.8384Zm-3.5981-11.7209c-3.1226,0-3.5982,2.6985-3.5982,5.3443s.4756,5.3444,3.5982,5.3444,3.5981-2.6987,3.5981-5.3444S389.92,148.5245,386.7979,148.5245Z" transform="translate(-1.7917 -3)"/><path class="cls-1" d="M404.92,154.16c0,3.2283,1.455,5.0273,4.1536,5.0273a4.4412,4.4412,0,0,0,3.5195-1.5348l1.0052.7939a5.7871,5.7871,0,0,1-4.6034,1.9575c-3.5194,0-5.4241-2.2746-5.4241-6.5351,0-4.1007,1.9047-6.535,5.1058-6.535,3.1755,0,5.1072,2.3286,5.1072,6.218v.6082Zm7.0647-3.4924a3.6237,3.6237,0,0,0-6.6149,0,5.8982,5.8982,0,0,0-.45,2.4074h7.5145A5.915,5.915,0,0,0,411.9847,150.6676Z" transform="translate(-1.7917 -3)"/><path class="cls-1" d="M429.4962,160.4039a6.9926,6.9926,0,0,1-5.1587-1.8249l.9253-.9265a5.4109,5.4109,0,0,0,4.1807,1.5607c2.4871,0,3.8364-.8725,3.8364-2.593,0-1.3222-.7668-1.9846-2.4343-2.1431l-2.1162-.1855c-2.567-.2114-3.8365-1.3493-3.8365-3.3328,0-2.1971,1.7991-3.625,4.5775-3.625a7.4745,7.4745,0,0,1,4.4707,1.3492l-.8995.9a5.9,5.9,0,0,0-3.5712-1.0852c-2.09,0-3.2552.9-3.2552,2.4614,0,1.3223.7939,1.9835,2.593,2.1431l2.0644.1845c2.1161.1856,3.7308.8467,3.7308,3.3338C434.6034,158.9489,432.6188,160.4039,429.4962,160.4039Z" transform="translate(-1.7917 -3)"/><path class="cls-1" d="M471.72,160.2454l-4.4988-8.6782h-5.1858v8.6782h-1.4292V141.407h7.17c3.07,0,5.3984,1.772,5.3984,5.053a4.8646,4.8646,0,0,1-4.3391,5.08l4.55,8.7053Zm-4.1277-17.5691h-5.5569v7.62h5.5569c2.4073,0,4.1536-1.2166,4.1536-3.8094S470,142.6763,467.5925,142.6763Z" transform="translate(-1.7917 -3)"/><path class="cls-1" d="M485.6865,154.16c0,3.2283,1.4549,5.0273,4.1536,5.0273a4.4406,4.4406,0,0,0,3.5193-1.5348l1.0053.7939a5.7871,5.7871,0,0,1-4.6034,1.9575c-3.5194,0-5.4241-2.2746-5.4241-6.5351,0-4.1007,1.9047-6.535,5.1059-6.535,3.1754,0,5.1072,2.3286,5.1072,6.218v.6082Zm7.0647-3.4924a3.6238,3.6238,0,0,0-6.615,0,5.8951,5.8951,0,0,0-.45,2.4074h7.5145A5.92,5.92,0,0,0,492.7512,150.6676Z" transform="translate(-1.7917 -3)"/><path class="cls-1" d="M506.1878,143.0733V141.407h1.6675v1.6663Zm.16,17.1721V147.4923h1.3493v12.7531Z" transform="translate(-1.7917 -3)"/><path class="cls-1" d="M524.1784,160.4039a6.9927,6.9927,0,0,1-5.1588-1.8249l.9253-.9265a5.4109,5.4109,0,0,0,4.1807,1.5607c2.4871,0,3.8365-.8725,3.8365-2.593,0-1.3222-.7669-1.9846-2.4344-2.1431l-2.1162-.1855c-2.567-.2114-3.8365-1.3493-3.8365-3.3328,0-2.1971,1.7991-3.625,4.5775-3.625a7.4745,7.4745,0,0,1,4.4707,1.3492l-.8995.9a5.9,5.9,0,0,0-3.5712-1.0852c-2.09,0-3.2552.9-3.2552,2.4614,0,1.3223.7939,1.9835,2.593,2.1431l2.0645.1845c2.116.1856,3.7307.8467,3.7307,3.3338C529.2855,158.9489,527.3009,160.4039,524.1784,160.4039Z" transform="translate(-1.7917 -3)"/><path class="cls-1" d="M541.374,154.16c0,3.2283,1.455,5.0273,4.1535,5.0273a4.441,4.441,0,0,0,3.5195-1.5348l1.0052.7939a5.7867,5.7867,0,0,1-4.6033,1.9575c-3.5195,0-5.4241-2.2746-5.4241-6.5351,0-4.1007,1.9046-6.535,5.1059-6.535,3.1754,0,5.1071,2.3286,5.1071,6.218v.6082Zm7.0647-3.4924a3.6237,3.6237,0,0,0-6.6149,0,5.8966,5.8966,0,0,0-.45,2.4074h7.5146A5.9182,5.9182,0,0,0,548.4387,150.6676Z" transform="translate(-1.7917 -3)"/><path class="cls-1" d="M570.5019,160.2454V152.334c0-2.46-1.2436-3.81-3.5195-3.81s-3.5981,1.4021-3.5981,3.81v7.9114h-1.3492V147.4923h1.3492V149a5.1822,5.1822,0,0,1,7.1435-.45,4.7925,4.7925,0,0,1,1.3235,3.5453v8.15Z" transform="translate(-1.7917 -3)"/><path class="cls-1" d="M588.1731,160.4039a6.9923,6.9923,0,0,1-5.1587-1.8249l.9253-.9265a5.4107,5.4107,0,0,0,4.1806,1.5607c2.4872,0,3.8365-.8725,3.8365-2.593,0-1.3222-.7668-1.9846-2.4343-2.1431l-2.1162-.1855c-2.5671-.2114-3.8365-1.3493-3.8365-3.3328,0-2.1971,1.7991-3.625,4.5775-3.625a7.4742,7.4742,0,0,1,4.4706,1.3492l-.9.9a5.9,5.9,0,0,0-3.571-1.0852c-2.09,0-3.2552.9-3.2552,2.4614,0,1.3223.7938,1.9835,2.5928,2.1431l2.0645.1845c2.1162.1856,3.7309.8467,3.7309,3.3338C593.28,158.9489,591.2957,160.4039,588.1731,160.4039Z" transform="translate(-1.7917 -3)"/><path class="cls-2" d="M370.5265,36.8582h-25.2a61.3168,61.3168,0,0,1-.0976,48.4261v16.7981h16.4583V81.8112h8.8391c14.1717,0,23.9233-9.4463,23.9233-22.3991C394.45,47.0677,386.6793,36.8582,370.5265,36.8582Zm-1.3728,30.4783h-7.4663V51.3351h7.4663c4.8793,0,8.6877,3.5065,8.6877,7.922C377.8414,63.9826,374.033,67.3365,369.1537,67.3365Z" transform="translate(-1.7917 -3)"/><path class="cls-2" d="M227.7981,60.9623a61.4877,61.4877,0,0,1,1.2953-12.5618c-7.8715-10.1866-22.1-17.0371-38.52-17.0371-24.929,0-44.7475,15.9849-44.7475,35.3026,0,19.4467,19.8185,35.5655,44.7475,35.5655,18.1962,0,33.6948-8.4838,40.8394-20.5131A61.12,61.12,0,0,1,227.7981,60.9623ZM190.5732,88.5107c-15.02,0-27.4051-9.7234-27.4051-21.8447,0-11.99,12.385-21.8471,27.4051-21.8471,15.1758,0,27.5644,9.8573,27.5644,21.9809C218.1376,78.7873,205.749,88.5107,190.5732,88.5107Z" transform="translate(-1.7917 -3)"/><rect class="cls-1" y="130.7309" width="591.2117" height="1.3635"/></svg>