<?xml version="1.0" encoding="utf-8"?>
<!-- Generator: Adobe Illustrator 24.0.3, SVG Export Plug-In . SVG Version: 6.00 Build 0)  -->
<svg version="1.1" id="natur" xmlns="http://www.w3.org/2000/svg" xmlns:xlink="http://www.w3.org/1999/xlink" x="0px" y="0px"
	 viewBox="0 0 200 200" style="enable-background:new 0 0 200 200;" xml:space="preserve">
<style type="text/css">
	.st0{fill:#FFFFFF;}
	.st1{fill:#BCBBBB;}
	.st2{fill:#565656;}
</style>
<rect id="square" class="st0" width="200" height="200"/>
<circle class="st1" cx="102.3" cy="73.4" r="53.1"/>
<g>
	<path class="st2" d="M-217.2,198c4.1-1.2,24.2-12.4,49.5-15.4c46.1-5.6,97.4-26.6,105.2-28c12.3-2.2,58.2-14.6,67.6-20.3
		s54.3-25.3,63.7-26.8c9.4-1.4,31.9-29,34-25.3c2.2,3.6,19.2-6.5,23.5-3.6s17,0.4,17.4,2.5c0.4,2.2,22.1,23.9,25.7,25
		c3.6,1.1,47.8,26.4,53.9,27.2c6.2,0.7,65.9,19.9,74.2,20.6s88.7,20.6,94.5,25c5.8,4.3,26.4,17,25.3,19.2
		C416.3,200.2-223.2,199.8-217.2,198z"/>
	<g>
		<path class="st0" d="M99.4,90.5c0,0-8.9,10.6-10.9,11.6c-1.9,1-17.6,11.6-19.5,11.8c-1.9,0.2-7,1.4-9.7,2.9
			c-2.7,1.4-15.9,6-21.2,9.4s-23.7,11.1-23.7,11.1h8.7c0,0,3.6-3.4,5.1-2.9c1.4,0.5,5.8,0.2,5.8,0.2s6.8-6.3,9.4-6
			c2.7,0.2,7.2-2.4,7.2-1.2c0,1.2-6.3,7.2-8.4,7c-2.2-0.2-4.1,9.9-4.1,9.9l21-12.6c0,0,2.9-3.2,2.9-1.8s0.3,6.4,0.3,6.4l-1.9,3.3
			c0,0,6.5-1.6,8-2.6c1.4-1,6.5-2.7,6.5-2.7L73,137l4.6-0.5l-8.7,6.5l11.6-0.5c0,0,2.4-2.3,5.1-3s14-4.5,14-4.5l-1,4.5l-7,4.7
			c0,0-2.9,1.2-4.6,2.1c-1.7,1-8.9,7.7-8.9,7.7h8.7c0,0,14.7-9.6,16.7-9.9c1.9-0.3-1.7,6-1.7,6l7.5-1.4c0,0,5.6-8.1,5.6-9.3
			s-2.4-3.3-1.7-3.8s3.1-6.5,4.8-8.2c1.7-1.7,1.8-1.9,3.1-5.3c1.3-3.4,0-6.3,0-6.3l-2.6,1.9l-1.4-7l-6.6-6l-0.6,7.5l1.9,3.4
			l-4.2,9.6l-6.2,5.6l0.5-6.4l1.2-1.2l-1.3-8.7l-2.2,2.2l-9.8,3.3c0,0,5.1-6.3,8.9-9.4c6.9-5.5,6.6-9.8,8-9.7c2.2,0.2,4.8-1,4.8-1
			s2.5-2.9,4.2-2.9s4.8-0.7,4.8-0.7s4.7,10.4,5.9,11.6c1.2,1.2,13.5,10.4,16.3,13.2c1.2,1.2,5.9,10,5.9,10s14.7,7.8,16.9,8.4
			c2.2,0.6-0.7-3.3-2.2-4.7c-1.4-1.4-13.3-14.5-13.3-14.5s9.3,0.1,10.7,1.8c1.4,1.7-7.8-6-11-5.9c-4,0.2-5.1-4.7-9.7-6.5
			c-2.5-1,3.1,7,3.1,7s-19.3-19.5-19.1-22s10-5.7,10-5.7s-4.2-0.8-7.1-0.6c-2.9,0.2-9.4,2.7-14.6,2.5c-2.5-0.1-10.4,5.6-10.4,5.6
			l5.1-7.6L99.4,90.5z"/>
		<path class="st0" d="M24,140.6c-0.9,0.1-4.8,3.8-4.8,3.8s2.8,0.3,4.5,0s6.6-3.8,6.6-3.8S26.8,140.2,24,140.6z"/>
		<path class="st0" d="M126.4,141.8c-0.2,1.4-8,10.6-8,10.6s7.8-1.7,10.1-1.7c2.3,0,5.2,2.1,6.4,2.3s7.4,0.6,8,0s-8.6-7.6-8.6-7.6
			s6.9-0.6,8,0s3.1,1,4,0.7s7.2-0.6,8,0c0.7,0.6,4.6,1.6,5.4,1.4c0.8-0.1,3.3-0.7,3.3-0.7s-6.9-2.6-7.5-3.2
			c-0.6-0.6-11.8-8.4-13-8.7c-1.2-0.2-4.7,0-4.7,0l-1.9-4.3l-1,4.7c0,0-2.2-2.5-2.7-4.1s-2.7-6.6-2.7-6.6s-0.4,4.9-0.6,6
			c-0.2,1.1-2.1,2.9-2.1,4.1C126.9,137.2,126.4,141.8,126.4,141.8z"/>
		<path class="st0" d="M189.5,145.2c0,0-8-4.5-8.8-5.5s-7.8-7.6-8.1-8.1s7.5,3.5,8.4,3.5s1.6,0.2,1.6,0.2s7.7,5.3,8.4,5.9
			c0.7,0.6,16.5,5.7,18.2,6c1.7,0.4,6.9,2.4,7.2,3c0.4,0.6-4,0.6-4.5,0.8s-2.9,1.3-3.7,1.2s-2.2-1.3-2.7-1.3s-8.4,0.8-9.3,0.4
			c-0.8-0.5-6.2-2.2-6.2-2.5c0-0.4-4.5-1.2-5.4-0.6c-1,0.6-2.4,0.5-2.4,0.5s-8.2-7.5-8.1-8.2c0.1-0.7,9.4,4.2,10.6,4.6
			C186.1,145.4,189.5,145.2,189.5,145.2z"/>
	</g>
</g>
</svg>
