<?xml version="1.0" encoding="utf-8"?>
<!-- Generator: Adobe Illustrator 24.0.3, SVG Export Plug-In . SVG Version: 6.00 Build 0)  -->
<svg version="1.1" id="kulinarik" xmlns="http://www.w3.org/2000/svg" xmlns:xlink="http://www.w3.org/1999/xlink" x="0px" y="0px"
	 viewBox="0 0 200 200" style="enable-background:new 0 0 200 200;" xml:space="preserve">
<style type="text/css">
	.st0{fill:#FFFFFF;}
	.st1{fill:#FFFFFF;stroke:#000000;stroke-width:3;stroke-miterlimit:10;}
	.st2{fill:#BC002D;}
</style>
<g id="kulinarik-2">
	<rect id="square" width="200" height="200"/>
	<path class="st0" d="M47-97.1l-14.7,7l92,183.1c0.2,0.4,1,0.5,1.7,0.2l3.3-1.5c0.8-0.4,1.2-1,1-1.5L47-97.1z"/>
	<path class="st0" d="M-91.6,23l-7.9,14.3l181.7,94.6c0.4,0.2,1.1-0.2,1.5-0.8l1.7-3.2c0.4-0.8,0.4-1.6,0-1.8L-91.6,23z"/>
	<g>
		<path class="st1" d="M84.8,127.3c4.8,5.9,15,14.6,22.3,19.7c7.3,5.1,24.5,1.5,30.8-9.5c6.4-11,12.9-26.7,4.9-33.5
			s-28.5-23.8-38.7-25.7c-10.2-1.9-25.9,16.1-28.5,22.3C73,106.8,79.7,120.9,84.8,127.3z"/>
		
			<ellipse transform="matrix(0.6047 -0.7965 0.7965 0.6047 -46.4479 132.2328)" class="st2" cx="110" cy="112.9" rx="14.7" ry="17.2"/>
	</g>
</g>
</svg>
