<?xml version="1.0" encoding="utf-8"?>
<!-- Generator: Adobe Illustrator 24.0.3, SVG Export Plug-In . SVG Version: 6.00 Build 0)  -->
<svg version="1.1" id="tradition" xmlns="http://www.w3.org/2000/svg" xmlns:xlink="http://www.w3.org/1999/xlink" x="0px" y="0px"
	 viewBox="0 0 200 200" style="enable-background:new 0 0 200 200;" xml:space="preserve">
<style type="text/css">
	.st0{fill:#FFFFFF;}
	.st1{fill:#BC002D;}
</style>
<rect y="-0.5" class="st0" width="200" height="200"/>
<circle class="st1" cx="124.3" cy="63.9" r="46.5"/>
<g>
	<polygon points="103,125.2 96.2,125.2 96.2,107.2 76.6,107.2 76.6,125.2 52.6,125.2 52.6,108.2 38.3,108.2 38.3,125.2 14.3,125.2
		14.3,107.2 -5.4,107.2 -5.4,125.2 -12.1,125.2 -12.1,142.2 -5.4,142.2 -5.4,208.3 14.3,208.3 14.3,142.2 76.6,142.2 76.6,208.3
		96.2,208.3 96.2,142.2 103,142.2 	"/>
	<path d="M-47,63.2c-3.5,0,8.7,14,10.6,16.4c1.9,2.4,1.7,10,3.7,13.3c1.3,2.2,40.6,12.5,78.1,12.5s76.3-10.2,78.3-12.2
		c2-2,1.2-11.6,3.2-13.5c3.8-3.8,13.2-16.4,10.6-16.4c-4.3,0-40.3,16.7-92.1,16.7C-7.2,79.9-42.6,63.2-47,63.2z"/>
</g>
</svg>
