<?xml version="1.0" encoding="utf-8"?>
<!-- Generator: Adobe Illustrator 24.0.3, SVG Export Plug-In . SVG Version: 6.00 Build 0)  -->
<svg version="1.1" id="kulinarik" xmlns="http://www.w3.org/2000/svg" xmlns:xlink="http://www.w3.org/1999/xlink" x="0px" y="0px"
	 viewBox="0 0 200 200" style="enable-background:new 0 0 200 200;" xml:space="preserve">
<style type="text/css">
	.st0{fill:#FFFFFF;}
	.st1{fill:#BC002D;}
</style>
<rect id="square" class="st0" width="200" height="200"/>
<circle class="st1" cx="147.1" cy="64.1" r="31.1"/>
<path d="M73.9,159.7c-0.4,0-1.1,0-1.1,0l0.4-0.4h0.1V159c0,0-1.2-0.1-4.2-0.1c-3.1,0-5-1.2-5-1.2l0,0c0.4,0,0.5-0.1,0.5-0.1v-0.1
	h0.1v-0.1h0.4V157c0,0-0.1,0-0.5,0c-0.1,0-0.5,0-0.5,0v-0.4h0.2v-0.4c0,0-0.1,0-0.5,0.1c-0.5-0.1-2.3-1.1-3.2-2.3
	c-1.4-1.3-2.4-3.4-2.4-3.4l-0.8-0.1v-0.8l0.1-0.1v-0.1l0.1-0.1h-0.5c0,0,0,0,0-0.1c0,0,0-0.1-0.1-0.1l0,0h0.4v-0.4c0,0-0.1,0-0.5,0
	c-0.1,0-0.4,0-0.4,0l0,0l0.1-0.1l0.8-0.1l0.1-0.7h-0.5v-0.1c0.4-0.1,0.5-0.1,0.5-0.1v-0.8h0.4v-0.1h0.4v-0.4c0,0-0.4,0-0.7,0
	c-0.4,0-0.8,0-0.8,0v-0.5h0.4v-0.5c0,0-0.8,0.1-2,0.4c-1.4,0.1-2,0-2,0v-0.4h0.4l0.1-0.4c0,0-0.7,0-1.2,0c-1.2,0-2.4-0.1-3.6-0.4
	c-0.8-0.1-1.7-0.4-2.4-0.5l0,0l0,0v-0.1h-0.4v-0.1h0.1v-0.1h0.1v-0.1h0.7v-0.4h-0.6v-0.7h-0.1v-0.1l0,0l0,0h-0.4v-0.4h0.1
	c0.1,0,0.5,0,0.5,0v-0.4c0,0-0.1,0.1-0.7,0.1v-0.4h0.1c0.1,0,0.5,0,0.5,0v-0.4c0,0-0.4,0.1-0.8,0.1h-0.1l0,0c0,0-0.1,0-0.4,0
	c-0.4,0-1.1,0-1.9,0l0,0h-0.4l0,0c-0.5,0-1.1,0-1.2,0v-0.5h0v-0.1l0,0l0,0l0,0v-0.1h-0.1v-3.6h0.1v-0.8h-0.1v-0.1h0.1V136H42v-1.1
	h0.8v-0.4c0.8,0,1.7,0,2.7,0c6.3,0,8.8-0.5,10.1-0.8v0.5c0,0-0.1,0-0.1,0.1c0,0.1,0,0.4,0,0.5c-0.1,0.1-0.1,0.4-0.1,0.4
	s0.1,0.1,0.4,0.1c0,0,0,0.1,0.4,0.1c0.1,0,0.4-0.1,0.4-0.1c0.1,0,0.4-0.1,0.4-0.1s-0.1,0-0.1-0.4c-0.1-0.1,0-0.4-0.1-0.5
	c-0.1-0.1-0.1-0.1-0.1-0.1v-0.7c0.4-0.1,0.5-0.1,0.5-0.1l0.1-0.1l0.8-0.1l0.1-0.7h-0.5v-0.1c0.4-0.1,0.5-0.1,0.5-0.1v-0.8h0.4v-0.1
	h0.4v-0.4c0,0-0.4,0-0.7,0c-0.4,0-0.8,0-0.8,0v-0.4h0.4v-0.5c0,0-0.8,0.1-2,0.4c-1.4,0.1-2,0-2,0v-0.4h0.4l0.1-0.4c0,0-0.7,0-1.2,0
	c-1.2,0-2.4-0.1-3.6-0.4c-0.8-0.1-1.7-0.4-2.4-0.5l0,0l0,0v-0.1h-0.4v-0.1h0.1v-0.1h0v-0.1h0.7v-0.6h-0.5v-0.1h-0.2v-0.5h-0.1l0,0
	h-0.4v-0.4h0.1c0.1,0,0.5,0,0.5,0v-0.4c0,0-0.1,0.1-0.7,0.1v-0.4h0.1c0.1,0,0.5,0,0.5,0v-0.4c0,0-0.4,0.1-0.8,0.1h-0.1l0,0
	c0,0-0.1,0-0.4,0c-0.4,0-1.1,0-1.9,0l0,0h-0.4l0,0c-0.5,0-1.1,0-1.2,0v-0.4h0v-0.2l0,0l0,0l0,0v-0.1h-0.1v-3.6h0.1v-0.8h-0.1v-0.1
	h0.1v-0.4H42v-1.1h0.8V119c0.8,0,1.7,0,2.7,0c6.3,0,8.8-0.5,10.1-0.8v0.7c0,0-0.1,0-0.1,0.1c0,0.1,0,0.4,0,0.5
	c-0.1,0.1-0.1,0.4-0.1,0.4s0.1,0.1,0.4,0.1c0,0,0,0.1,0.4,0.1c0.1,0,0.4-0.1,0.4-0.1c0.1,0,0.4-0.1,0.4-0.1s-0.1,0-0.1-0.4
	c-0.1-0.1,0-0.4-0.1-0.5c-0.1-0.1-0.1-0.1-0.1-0.1v-0.7c0.4-0.1,0.5-0.1,0.5-0.1l0.1-0.1l0.8-0.1l0.1-0.7h-0.5V117
	c0.4-0.1,0.5-0.1,0.5-0.1v-0.4h0.4v-0.1h0.4v-0.4c0,0-0.4,0-0.7,0c-0.4,0-0.8,0-0.8,0v-0.5h0.4v-0.5c0,0-0.8,0.1-2,0.4
	c-1.4,0.1-2,0-2,0v-0.4h0.4l0.1-0.4c0,0-0.7,0.1-1.2,0c-1.2,0-2.4-0.1-3.6-0.4c-0.8-0.1-1.7-0.4-2.4-0.5l0,0l0,0v-0.1h-0.4v-0.1h0.1
	v-0.1h0v-0.1h0.7v-0.4h-0.5V113h-0.2v-0.1h-0.1l0,0h-0.4v-0.4h0.1c0.1,0,0.5,0,0.5,0v-0.4c0,0-0.1,0.1-0.7,0.1v-0.4h0.1
	c0.1,0,0.5,0,0.5,0v-0.4c0,0-0.4,0.1-0.8,0.1h-0.1l0,0c0,0-0.1,0-0.4,0c-0.4,0-1.1,0-1.9,0l0,0h-0.4l0,0c-0.5,0-1.1,0-1.2,0v-0.4h0
	v-0.1l0,0l0,0l0,0v-0.5h-0.1v-3.6h0.1v-0.8h-0.1v-0.1h0.1v-0.4H42v-1.1h0.8v-0.4c0.8,0,1.7,0,2.7,0c6.3,0,8.8-0.5,10.1-0.8v0.7
	c0,0-0.1,0-0.1,0.1s0,0.4,0,0.5c-0.1,0.1-0.1,0.4-0.1,0.4s0.1,0.1,0.4,0.1c0,0,0,0.1,0.4,0.1c0.1,0,0.4-0.1,0.4-0.1
	c0.1,0,0.4-0.1,0.4-0.1s-0.1,0-0.1-0.4c-0.1-0.1,0-0.4-0.1-0.5s-0.1-0.1-0.1-0.1v-0.7c0.4-0.1,0.5-0.1,0.5-0.1l0.1-0.1l0.8-0.1
	l0.1-0.7h-0.5v-0.1c0.4-0.1,0.5-0.1,0.5-0.1v-0.4h0.4v-0.1h0.4v-0.4c0,0-0.4,0-0.7,0c-0.4,0-0.8,0-0.8,0V101h0.4v-0.5
	c0,0-0.8,0.1-2,0.4c-1.4,0.1-2,0-2,0v-0.4h0.4l0.1-0.4c0,0-0.7,0.1-1.2,0c-1.2,0-2.4-0.1-3.6-0.4c-0.8-0.1-1.7-0.4-2.4-0.5l0,0l0,0
	v-1.2h-0.4V98h0.1v-0.1h0v-0.1h0.7v-0.4h-0.5v-0.1h-0.2V97h-0.1l0,0h-0.4v-0.4h0.1c0.1,0,0.5,0,0.5,0v-0.4c0,0-0.1,0.1-0.7,0.1V96
	h0.1c0.1,0,0.5,0,0.5,0v-0.2c0,0-0.4,0.1-0.8,0.1h-0.1l0,0c0,0-0.1,0-0.4,0c-0.4,0-1.1,0-1.9,0l0,0h-0.4l0,0c-0.5,0-1.1,0-1.2,0
	v-0.4h0v-0.1l0,0l0,0l0,0v-0.1h-0.1v-3.9h0.1v-0.8h-0.1v-0.1h0.1v-0.4H42V89h0.8v-0.4c0.8,0,1.7,0,2.7,0c6.3,0,8.8-0.5,10.1-0.8v0.5
	c0,0-0.1,0-0.1,0.1c0,0.1,0,0.4,0,0.5c-0.1,0.1-0.1,0.4-0.1,0.4s0.1,0.1,0.4,0.1c0,0,0,0.1,0.4,0.1c0.1,0,0.4-0.1,0.4-0.1
	c0.1,0,0.4-0.1,0.4-0.1s-0.1,0-0.1-0.4c-0.1-0.1,0-0.4-0.1-0.5c-0.1-0.1-0.1-0.1-0.1-0.1v-0.4c0.4-0.1,0.5-0.1,0.5-0.1l0.1-0.1
	l0.8-0.1l0.1-0.7h-0.5v-0.1c0.4-0.1,0.5-0.1,0.5-0.1v-0.4h0.4v-0.1h0.4v-0.4c0,0-0.4,0-0.7,0c-0.4,0-0.8,0-0.8,0v-0.7h0.4v-0.5
	c0,0-0.8,0.1-2,0.4c-1.4,0.1-2,0-2,0v-0.4h0.4l0.1-0.4c0,0-1.1,0-1.5,0c-1.2,0-4.3-0.8-6.3-1.5c-1.9-0.5-3.9-1.2-6.3-2.8
	c-3.8-2.7-3.6-4.4-3.6-4.4h-1.1V75h0.4v-0.8h-0.8c0-0.4-0.1-0.5-0.4-0.8l0.1-0.1c0.4-0.4,0.1-0.5,0.1-1.1c0.1-0.4,0.4-0.5,0.4-0.5
	s-0.4-0.1-0.5,0.1c-0.1,0.4-0.1,0.7-0.1,0.8s-0.1,0.1-0.4,0.1c0,0,0,0-0.1-0.1v-0.1c0.1,0,0.1-0.1,0.1-0.4c0-0.1-0.1-0.4-0.4-0.4
	l0,0v-6.2c1.7,0,1.7-0.4,1.7-0.5c0-0.4-1.1-0.5-1.7-0.5v-0.4c1.7,0,1.7-0.4,1.7-0.5c0-0.4-1.1-0.5-1.7-0.5V63c1.7,0,1.7-0.4,1.7-0.5
	c0-0.4-1.1-0.5-1.7-0.5v-0.4c1.7,0,1.7-0.4,1.7-0.5c0-0.4-1.1-0.5-1.7-0.5v-0.6c1.7,0,1.7-0.4,1.7-0.5c0-0.4-1.1-0.5-1.7-0.5v-0.4
	c1.7,0,1.7-0.4,1.7-0.5c0-0.4-1.1-0.5-1.7-0.5v-0.4c1.7,0,1.7-0.4,1.7-0.5c0-0.4-1.1-0.5-1.7-0.5v-0.4c1.7,0,1.7-0.4,1.7-0.5
	c0-0.4-1.1-0.5-1.7-0.5V55c1.7,0,1.7-0.4,1.7-0.5c0-0.4-1.1-0.5-1.7-0.5l0,0l-0.1-6.2v-0.4c0.4,0,0.5-0.4,0.5-0.7
	c0-0.4-0.5-0.8-0.8-0.8v-1.3c0.4,0,0.5-0.4,0.5-0.7c0-0.4-0.7-1.2-0.7-1.2s-0.7,0.7-0.7,1.2c0,0.4,0.1,0.7,0.5,0.7V46
	c-0.4,0-0.5,0.4-0.5,0.7c0,0.4,0.1,0.7,0.5,0.7v0.4l-0.1,6.2l0,0c-1.7,0-1.7,0.4-1.7,0.5c0,0.4,1.1,0.5,1.7,0.5v0.4
	c-1.7,0-1.7,0.4-1.7,0.5c0,0.4,1.1,0.5,1.7,0.5v0.4C31,56.5,31,56.9,31,57c0,0.4,1.1,0.5,1.7,0.5v0.4c-1.7,0-1.7,0.4-1.7,0.5
	c0,0.4,1.1,0.5,1.7,0.5v0.4c-1.7,0-1.7,0.4-1.7,0.5c0,0.4,1.1,0.5,1.7,0.5v0.4c-1.7,0-1.7,0.4-1.7,0.5c0,0.4,1.1,0.5,1.7,0.5v0.4
	c-1.7,0-1.7,0.4-1.7,0.5c0,0.4,1.1,0.5,1.7,0.5V63C31,63,31,63.4,31,63.5c0,0.4,1.1,0.5,1.7,0.5v0.4c-1.7,0-1.7,0.4-1.7,0.5
	c0,0.4,1.1,0.5,1.7,0.5v6.2l0,0c-0.1,0-0.4,0.1-0.4,0.4s0,0.1,0.1,0.4v0.1c0,0,0,0.1-0.1,0.1s-0.1,0-0.4-0.1c0-0.1,0-0.5-0.1-0.8
	c-0.1-0.4-0.5-0.1-0.5-0.1s0.1,0.1,0.4,0.5c0.1,0.4-0.1,0.5,0.1,1.1l0.1,0.1c-0.1,0.1-0.4,0.5-0.4,0.8h-0.8v0.8h0.5v0.5h-1.1
	c0,0,0.4,1.9-3.6,4.4c-2.4,1.7-4.3,2.3-6.3,2.8c-2,0.7-5,1.5-6.3,1.5c-0.5,0-1.5,0-1.5,0l0.1,0.4H13v0.4c0,0-0.7,0-2,0
	c-1.1-0.1-2-0.4-2-0.4v0.5h0.4v0.5c0,0-0.5,0-0.8,0c-0.4,0-0.7,0-0.7,0v0.4h0.4v0.1h0.4V86c0,0,0.1,0.1,0.5,0.1v0.1H8.5L8.6,87
	l0.8,0.1l0.1,0.1c0,0,0.1,0,0.5,0.1v0.7c0,0-0.1,0-0.1,0.1c-0.1,0.1,0,0.4-0.1,0.5C9.6,88.8,9.6,89,9.6,89s0.1,0.1,0.4,0.1
	c0,0,0,0.1,0.1,0.1c0.1,0,0.4-0.1,0.4-0.1c0.1,0,0.4-0.1,0.4-0.1s-0.1,0-0.1-0.4c-0.1-0.1,0-0.4-0.1-0.5c-0.1-0.1-0.1-0.1-0.1-0.1
	v-0.7c1.2,0.4,3.8,0.8,10.1,0.8c1.1,0,1.9,0,2.7,0v0.4h0.8v1.1h0.1V90h0.1v0.1h-0.1v0.8h0.1v3.6h-0.1v0.1l0,0l0,0l0,0v0.1h-0.1v0.4
	c-0.4,0-0.7,0-1.2,0l0,0h-0.4l0,0c-0.7,0-1.5,0-1.9,0c-0.1,0-0.1,0-0.4,0l0,0H21c-0.5,0-0.8-0.1-0.8-0.1s0,0.1,0,0.4
	c0,0,0.4,0,0.5,0h0.1v0.4c-0.4,0-0.7-0.1-0.7-0.1s0,0.1,0,0.4c0,0,0.4,0,0.5,0h0.1v0.4h-0.4l0,0h-0.1v0.1l0,0v0.1h-0.5v0.4h0.7V97
	h0.1v0.1h0.1v0.1h-0.4v0.1l0,0l0,0c-0.7,0.1-1.4,0.4-2.4,0.5c-1.4,0.1-2.4,0.4-3.6,0.4c-0.5,0-1.2,0-1.2,0l0.1,0.4h0.4v0.4
	c0,0-0.7,0-2,0c-1.1,0-2-0.4-2-0.4V99h0.2v0.5c0,0-0.5,0-0.8,0c-0.4,0-0.7,0-0.7,0v0.4h0.4v0.1H9v0.4c0,0,0.1,0.1,0.5,0.1v0.1H9
	l0.1,0.7l0.8,0.1l0.1,0.1c0,0,0.1,0,0.5,0.1v0.7c0,0-0.1,0-0.1,0.1c-0.1,0.1,0,0.4-0.1,0.5c-0.1,0.1-0.1,0.4-0.1,0.4
	s0.1,0.1,0.4,0.1c0,0,0,0.1,0.1,0.1c0.1,0,0.4-0.1,0.4-0.1c0.1,0,0.4-0.1,0.4-0.1s-0.1,0-0.1-0.4c-0.1-0.1,0-0.4-0.1-0.5
	c-0.1-0.1-0.1-0.1-0.1-0.1v-0.7c1.2,0.4,3.8,0.8,10.1,0.8c1.1,0,1.9,0,2.7,0v0.4h0.8v1.1h0.1v0.4h0.1v0.1h-0.1v0.8h0.1v3.6h-0.1v0.1
	l0,0l0,0l0,0v0.1h-0.1v0.4c-0.4,0-0.7,0-1.2,0l0,0h-0.4l0,0c-0.7,0-1.5,0-1.9,0c-0.1,0-0.1,0-0.4,0l0,0l0,0c-0.5,0-0.8-0.1-0.8-0.1
	s0,0.1,0,0.4c0,0,0.4,0,0.5,0h0.1v0.4c-0.4,0-0.7-0.1-0.7-0.1s0,0.1,0,0.4c0,0,0.4,0,0.5,0h0.1v0.4h-0.4l0,0h-0.1v0.1l0,0v0.1h-0.5
	v0.4h0.7v0.1h0.1v0.1h0.1v0.1h-0.4v0.1l0,0l0,0c-0.7,0.1-1.4,0.4-2.4,0.5c-1.4,0.1-2.4,0.4-3.6,0.4c-0.5,0-1.2,0-1.2,0l0.1,0.4h0.4
	v0.4c0,0-0.7,0-2,0c-1.1-0.1-2-0.4-2-0.4v0.5h0.4v0.5c0,0-0.5,0-0.8,0c-0.4,0-0.7,0-0.7,0v0.4h0.4v0.1H9v0.4c0,0,0.1,0.1,0.5,0.1
	v0.1H9l0.1,0.7l0.8,0.1l0.1,0.1c0,0,0.1,0,0.5,0.1v0.7c0,0-0.1,0-0.1,0.1c-0.1,0.1,0,0.4-0.1,0.5c-0.1,0.1-0.1,0.4-0.1,0.4
	s0.1,0.1,0.4,0.1c0,0,0,0.1,0.1,0.1c0.1,0,0.4-0.1,0.4-0.1c0.1,0,0.4-0.1,0.4-0.1s-0.1,0-0.1-0.4c-0.1-0.1,0-0.4-0.1-0.5
	c-0.1-0.1-0.1-0.1-0.1-0.1v-0.7c1.2,0.4,3.8,0.8,10.1,0.8c1.1,0,1.9,0,2.7,0v0.4h0.8v1.1h0.1v0.4h0.1v0.1h-0.1v0.8h0.1v3.6h-0.1v0.1
	l0,0l0,0l0,0v0.1h-0.1v0.4c-0.4,0-0.7,0-1.2,0l0,0h-0.4l0,0c-0.7,0-1.5,0-1.9,0c-0.1,0-0.1,0-0.4,0l0,0l0,0c-0.5,0-0.8-0.1-0.8-0.1
	s0,0.1,0,0.4c0,0,0.4,0,0.5,0h0.1v0.4c-0.4,0-0.7-0.1-0.7-0.1s0,0.1,0,0.4c0,0,0.4,0,0.5,0h0.1v0.4h-0.4l0,0h-0.1v0.1l0,0v0.1h-0.5
	v0.4h0.7v0.1h0.1v0.1h0.1v0.1h-0.4v0.1l0,0l0,0c-0.7,0.1-1.4,0.4-2.4,0.5c-1.4,0.1-2.4,0.4-3.6,0.4c-0.5,0-1.2,0-1.2,0l0.1,0.4h0.4
	v0.4c0,0-0.7,0-2,0c-1.1-0.1-2-0.4-2-0.4v0.5h0.4v0.5c0,0-0.5,0-0.8,0c-0.4,0-0.7,0-0.7,0v0.4h0.4v0.1H9v0.4c0,0,0.1,0.1,0.5,0.1
	v0.1H9l0.1,0.7l0.8,0.1l0.1,0.1c0,0,0.1,0,0.5,0.1v0.7c0,0-0.1,0-0.1,0.1c-0.1,0.1,0,0.4-0.1,0.5c-0.1,0.1-0.1,0.4-0.1,0.4
	s0.1,0.1,0.4,0.1c0,0,0,0.1,0.1,0.1c0.1,0,0.4-0.1,0.4-0.1c0.1,0,0.4-0.1,0.4-0.1s-0.1,0-0.1-0.4c-0.1-0.1,0-0.4-0.1-0.5
	c-0.1-0.1-0.1-0.1-0.1-0.1v1.8c1.2,0.4,3.8,0.8,10.1,0.8c1.1,0,1.9,0,2.7,0v0.4h0.8v1.1h0.1v0.4h0.1v0.1h-0.1v0.8h0.1v3.6h-0.1v0.1
	l0,0l0,0l0,0v0.1h-0.1v0.4c-0.4,0-0.7,0-1.2,0l0,0h-0.4l0,0c-0.7,0-1.5,0-1.9,0c-0.1,0-0.1,0-0.4,0l0,0l0,0c-0.5,0-0.8-0.1-0.8-0.1
	s0,0.1,0,0.4c0,0,0.4,0,0.5,0h0.1v0.4c-0.4,0-0.7-0.1-0.7-0.1s0,0.1,0,0.4c0,0,0.4,0,0.5,0h0.1v0.4h-0.4l0,0h-0.1v0.1l0,0v0.1h-0.5
	v0.4h0.7v0.1h0.1v0.1h0.1v0.1h-0.4v0.1l0,0l0,0c-0.7,0.1-1.4,0.4-2.4,0.5c-1.4,0.1-2.4,0.4-3.6,0.4c-0.5,0-1.2,0-1.2,0l0.1,0.4h0.4
	v0.4c0,0-0.7,0-2,0c-1.1-0.1-2-0.4-2-0.4v0.5h0.4v0.5c0,0-0.5,0-0.8,0c-0.4,0-0.7,0-0.7,0v0.4h0.4v0.1H9v0.4c0,0,0.1,0.1,0.5,0.1
	v0.1H9l0.1,0.7l0.8,0.1l0.1,0.1l0,0c-0.1,0-0.4,0-0.4,0c-0.4,0-0.5,0-0.5,0v0.4h0.4l0,0l-0.1,0.1c0,0.1,0,0.1,0,0.1H9l0.1,0.1v0.1
	l0.1,0.1v0.8l-0.8,0.1c0,0-0.8,2-2.4,3.4c-1.2,1.2-2.7,1.9-3.2,2.3c-0.4,0-0.5-0.1-0.5-0.1v0.4h0.1v0.4c-0.1,0-0.4,0-0.7,0
	s-0.5,0-0.5,0v0.4h0.2v0.1h0.1v0.1c0,0,0.1,0,0.5,0.1l0,0c0,0-2,1.1-5,1.2c-2.7,0-4.2,0.1-4.2,0.1v0.4h0.1l0.4,0.4c0,0-0.7,0-1.1,0
	s-0.7-0.1-0.7-0.1l0.4,0.4h0.5v0.1h0.1v0.1c0,0,0.1,0,0.5,0.1v0.1H-7l0.1,0.5l0.7,0.1L-6,159c0,0,0.5,0.1,0.8,0.1c0,0,0.1,0,0.4,0
	v1.1H-5v0.7h-0.5v0.7H-5v1.5h-0.1v1.9H-5V180h76v-14.1h0.1V164h-0.1v-1.5h0.5v-0.7h-0.5V161H71V160c0.1,0,0.1,0,0.4,0
	c0.4,0,0.8-0.1,0.8-0.1l0.1-0.1l0.7-0.1l0.1-0.5h-0.4V159c0.4,0,0.5-0.1,0.5-0.1v-0.2h0.1v-0.1h0.6l0.4-0.4
	C74.5,159.5,74.1,159.5,73.9,159.7z M45.8,127.1h-0.7v-0.4c0.1,0,0.4,0,0.5,0c0.1,0,0.1,0,0.4,0v0.4H45.8z M43.7,126
	c0.8,0,1.5,0,1.9,0c0.1,0,0.1,0,0.4,0v0.4c-0.1,0-0.1,0-0.4,0c-0.4,0-1.1,0-1.9,0V126z M43.7,126.7c0.4,0,0.5,0,0.7,0v0.4h-0.7
	V126.7z M43.4,127.1h-0.7v-0.4c0.1,0,0.5,0,0.7,0V127.1z M42.1,126c0.4,0,0.7,0,1.2,0v0.4c-0.5,0-0.8,0-1.2,0V126z M45.8,111.9h-0.7
	v-0.4c0.1,0,0.4,0,0.5,0c0.1,0,0.1,0,0.4,0v0.4H45.8z M43.7,111c0.8,0,1.5,0,1.9,0c0.1,0,0.1,0,0.4,0v0.4c-0.1,0-0.1,0-0.4,0
	c-0.4,0-1.1,0-1.9,0V111z M43.7,111.4c0.4,0,0.5,0,0.7,0v0.4h-0.7V111.4z M43.4,111.9h-0.7v-0.4c0.1,0,0.5,0,0.7,0V111.9z M42.1,111
	c0.4,0,0.7,0,1.2,0v0.4c-0.5,0-0.8,0-1.2,0V111z M45.8,96.7h-0.7v-0.4c0.1,0,0.4,0,0.5,0c0.1,0,0.1,0,0.4,0v0.4H45.8z M43.7,95.8
	c0.8,0,1.5,0,1.9,0c0.1,0,0.1,0,0.4,0v0.4c-0.1,0-0.1,0-0.4,0c-0.4,0-1.1,0-1.9,0V95.8z M43.7,96.4c0.4,0,0.5,0,0.7,0v0.4h-0.7V96.4
	z M43.4,96.7h-0.7v-0.4c0.1,0,0.5,0,0.7,0V96.7z M42.1,95.8c0.4,0,0.7,0,1.2,0v0.4c-0.5,0-0.8,0-1.2,0V95.8z M33.8,54.6
	c0.4,0,0.7,0,0.8,0C34.5,54.7,34.2,54.7,33.8,54.6L33.8,54.6z M33.8,55.9c0.4,0,0.7,0,0.8,0C34.5,55.9,34.2,56,33.8,55.9L33.8,55.9z
	 M33.8,57.1c0.4,0,0.7,0,0.8,0C34.5,57.2,34.2,57.2,33.8,57.1L33.8,57.1z M33.8,58.4c0.4,0,0.7,0,0.8,0
	C34.5,58.6,34.2,58.6,33.8,58.4L33.8,58.4z M33.8,59.8c0.4,0,0.7,0,0.8,0C34.5,59.8,34.2,59.8,33.8,59.8L33.8,59.8z M33.8,61
	c0.4,0,0.7,0,0.8,0C34.5,61.1,34.2,61.1,33.8,61L33.8,61z M33.8,62.3c0.4,0,0.7,0,0.8,0C34.5,62.6,34.2,62.6,33.8,62.3L33.8,62.3z
	 M33.8,63.7c0.4,0,0.7,0,0.8,0C34.5,63.7,34.2,63.7,33.8,63.7L33.8,63.7z M33.8,64.9c0.4,0,0.7,0,0.8,0
	C34.5,65.1,34.2,65.1,33.8,64.9L33.8,64.9z M21.9,96.7h-0.7v-0.4c0.1,0,0.1,0,0.4,0c0,0,0.1,0,0.5,0v0.4H21.9z M23.2,96.7h-0.7v-0.4
	c0.1,0,0.5,0,0.7,0V96.7z M23.2,96.1c-0.7,0-1.5,0-1.9,0c-0.1,0-0.1,0-0.4,0v-0.4c0.1,0,0.1,0,0.4,0c0.2,0,1.1,0,1.9,0V96.1z
	 M24.2,96.7h-0.7v-0.4c0.1,0,0.5,0,0.7,0V96.7z M24.7,96.1c-0.4,0-0.7,0-1.2,0v-0.4c0.5,0,0.8,0,1.2,0V96.1z M21.9,111.9h-0.7v-0.4
	c0.1,0,0.1,0,0.4,0c0,0,0.1,0,0.5,0v0.4H21.9z M23.2,111.9h-0.7v-0.4c0.1,0,0.5,0,0.7,0V111.9z M23.2,111.3c-0.7,0-1.5,0-1.9,0
	c-0.1,0-0.1,0-0.4,0V111c0.1,0,0.1,0,0.4,0c0.2,0,1.1,0,1.9,0V111.3z M24.2,111.9h-0.7v-0.4c0.1,0,0.5,0,0.7,0V111.9z M24.7,111.4
	c-0.4,0-0.7,0-1.2,0v-0.4c0.5,0,0.8,0,1.2,0V111.4z M21.9,127.1h-0.7v-0.4c0.1,0,0.1,0,0.4,0c0,0,0.1,0,0.5,0v0.4H21.9z M23.2,127.1
	h-0.7v-0.4c0.1,0,0.5,0,0.7,0V127.1z M23.2,126.4c-0.7,0-1.5,0-1.9,0c-0.1,0-0.1,0-0.4,0V126c0.1,0,0.1,0,0.4,0c0.2,0,1.1,0,1.9,0
	V126.4z M24.2,127.1h-0.7v-0.4c0.1,0,0.5,0,0.7,0V127.1z M24.7,126.6c-0.4,0-0.7,0-1.2,0v-0.4c0.5,0,0.8,0,1.2,0V126.6z M43.7,141.2
	c0.8,0,1.5,0,1.9,0c0.1,0,0.1,0,0.4,0v0.4c-0.1,0-0.1,0-0.4,0c-0.4,0-1.1,0-1.9,0V141.2z M45.8,141.8v0.4h-0.7v-0.4
	c0.1,0,0.4,0,0.5,0H45.8z M43.7,141.8c0.4,0,0.5,0,0.7,0v0.4h-0.7V141.8z M42.1,141.2c0.4,0,0.7,0,1.2,0v0.4c-0.5,0-0.8,0-1.2,0
	V141.2z M43.4,141.8v0.4h-0.7v-0.4C42.9,141.8,43.1,141.8,43.4,141.8z M32.1,54.7c0.1,0,0.5,0,0.8,0v0.1
	C32.8,54.7,32.4,54.7,32.1,54.7z M32.1,55.9c0.1,0,0.5,0,0.8,0V56C32.8,56,32.4,55.9,32.1,55.9z M32.1,57.2c0.1,0,0.5,0,0.8,0v0.1
	C32.8,57.2,32.4,57.2,32.1,57.2z M32.1,58.4c0.1,0,0.5,0,0.8,0v0.1C32.8,58.6,32.4,58.6,32.1,58.4z M32.1,59.8c0.1,0,0.5,0,0.8,0
	v0.1C32.8,59.8,32.4,59.8,32.1,59.8z M32.1,61.1c0.1,0,0.5,0,0.8,0v0.2C32.8,61.1,32.4,61.1,32.1,61.1z M32.1,62.3
	c0.1,0,0.5,0,0.8,0v0.2C32.8,62.6,32.4,62.6,32.1,62.3z M32.1,63.7c0.1,0,0.5,0,0.8,0v0.1C32.8,63.7,32.4,63.7,32.1,63.7z
	 M32.1,65.1c0.1,0,0.5,0,0.8,0v0.1C32.8,65.1,32.4,65.1,32.1,65.1z M23.5,141.2c0.5,0,0.8,0,1.2,0v0.4c-0.4,0-0.7,0-1.2,0V141.2z
	 M23.5,141.8c0.1,0,0.5,0,0.7,0v0.4h-0.7V141.8z M20.9,141.2c0.1,0,0.1,0,0.4,0s1.1,0,1.9,0v0.4c-0.7,0-1.5,0-1.9,0
	c-0.1,0-0.1,0-0.4,0V141.2z M23.2,141.8v0.4h-0.7v-0.4C22.7,141.8,22.8,141.8,23.2,141.8z M20.9,141.8c0.1,0,0.1,0,0.4,0
	c0,0,0.1,0,0.5,0v0.4H21v-0.4H20.9z"/>
<path d="M125.3,168.5l-9-18c-3.4-6.7-6-13.8-7.9-21c-2.2-8.5-3.3-17.1-3.3-25.9v-7l1.9-1.1v-7.4h-2.9L103,52.7L102.5,37l0.6-2v-3
	v-0.5v-1.5h-1v-1.8v-4.6v-1.6h0.9v-0.5v-3.7V14h-3.1L99.3-2.8l-0.6-17.4L98-39v0.1l-0.6,18.4L96.9-3l-0.5,16.8h-3.1v3.7v3.8v0.5h0.5
	v1.6V28v1.8h-0.6v1.5v0.5v2.9l0.6,2l-1.6,51h-2.9v7.4l1.9,1.1v7c0,8.8-1.1,17.4-3.3,25.9c-1.9,7.3-4.5,14.3-7.9,21l-9.2,18.2H67v5.5
	h72.6v-5.5H125.3z M117.5,167c-0.4-2.4-1.2-4.4-2.5-6.4l3.3,2.9L117.5,167z M118.8,164l4,3.4H118L118.8,164z M122.9,167l-4.1-3.7
	l0.6-3.1L122.9,167z M118.4,163l-3.7-3.1h4.4L118.4,163z M114.5,157.6l3.1,1.4h-3.6L114.5,157.6z M113.7,158.9
	c-1-1.2-2.2-2.2-3.6-3.1l4,1.6L113.7,158.9z M118.8,158.7l-4.1-1.6l1.2-4.1L118.8,158.7z M114.1,157l-9.6-4h10.9L114.1,157z
	 M100.4,80.2l-1.3-1.4h2.6L100.4,80.2z M102.4,78.9v3.3l-1.5-1.6L102.4,78.9z M100.1,80.7l-1,1.1v-2.2L100.1,80.7z M100.5,80.9
	l1.5,1.5h-2.9L100.5,80.9z M102,84.1l-1.5,1.5l-1.4-1.4v-0.1H102z M100.2,86l-1.1,1.1v-2.2L100.2,86z M100.5,86.3l1.6,1.8l-3-0.3
	v-0.1L100.5,86.3z M101.9,121.4l3.4,3h-5.2v-1.2L101.9,121.4z M100.1,122.6v-2.8l1.4,1.2L100.1,122.6z M100.1,119.2v-1h4.3l-2.5,2.5
	L100.1,119.2z M100.1,117.5v-1.4l1.4-1.5l2.8,2.9C104.3,117.5,100.1,117.5,100.1,117.5z M100.1,115.3v-2.2l1,1.1L100.1,115.3z
	 M100.2,112.5v-1.2h3.4l-2.2,2.6L100.2,112.5z M100.1,110.6v-0.9l1.2-1l2.5,1.8C103.8,110.6,100.1,110.6,100.1,110.6z M100.1,109.2
	V108l0.9,0.5L100.1,109.2z M100.1,129.7v-3.1l2,1.5L100.1,129.7z M102.6,128.2l4.3,3h-6.7v-1L102.6,128.2z M100.1,136.9v-3.8
	l2.9,1.6L100.1,136.9z M103.5,135.1l5.5,3.1h-8.9v-0.6L103.5,135.1z M100.1,143.9v-4.1l4.1,1.9L100.1,143.9z M104.7,142l6.9,3.1
	h-11.5v-0.5L104.7,142z M100.1,146.6l5.5,1.9l-5.5,2.5V146.6z M100.1,151.6l6-2.8l8.5,3.1h-14.5V151.6z M114.9,151.2l0.3,0.5
	l-8.4-3.1l5.8-2.6C113.3,147.7,114.1,149.5,114.9,151.2z M106.1,148.2l-6-2.2v-0.3h11.8L106.1,148.2z M111.8,144.6l-6.5-3l4.4-2.5
	L111.8,144.6z M104.7,141.5l-4.6-2V139h9.2L104.7,141.5z M109,137.7l-5.1-2.9l3.4-2.5L109,137.7z M103.5,134.5l-3.4-1.9V132h7
	L103.5,134.5z M107,130.7l-4-2.9l2.8-2.4L107,130.7z M102.6,127.6l-2.5-1.8v-0.9h5.5L102.6,127.6z M105.4,123.7l-3.1-2.8l2.4-2.4
	L105.4,123.7z M104.6,117.1l-2.9-3l2.4-2.6C104.1,113.5,104.4,115.3,104.6,117.1z M104,110.1l-2.2-1.5l2-1.5
	C103.9,108,103.9,109.1,104,110.1z M103.2,106.7l-1.9,1.5l-1.2-0.9v-0.6H103.2z M102.6,84.1l0.1,3.9l-1.9-1.9L102.6,84.1z
	 M100.6,75.6l1.6-1.8l0.1,3.7L100.6,75.6z M99.1,73.8h2.6l-1.4,1.5L99.1,73.8z M100.1,75.6l-1,1v-1.9L100.1,75.6z M102.4,72.1
	l-1.6-1.6l1.5-1.5L102.4,72.1z M102.1,67.9V68l-1.9,1.9l-1.1-1.1v-2l1-1.1l2,2V67.9z M100,70.6l-0.9,0.8v-1.6L100,70.6z M99.1,66.2
	v-1.4l0.6,0.6L99.1,66.2z M100.4,65.6l1.4-1.5l0.3,3.1L100.4,65.6z M102,62.9V63l-1.9,2l-1-0.9v-2.4l1-1.1l1.9,1.9
	C102,62.7,102,62.9,102,62.9z M99.1,61.2v-1.4l0.6,0.6L99.1,61.2z M100.4,60.4l1.4-1.5l0.1,3L100.4,60.4z M101.9,57.8v0.3l-1.8,1.8
	l-1-1.1v-2.2l1-1.1l1.8,1.9V57.8z M100.1,50.6l1.1,1.5l-2-0.2L100.1,50.6z M99.1,50.9v-1.7l0.6,0.9L99.1,50.9z M101.4,53.6l-1.2,1.4
	l-1-1.1v-0.3H101.4z M99.7,55.2l-0.5,0.6v-1.4L99.7,55.2z M101.7,56.9l-1.4-1.5l1.4-1.5V56.9z M101.6,51.9l-1.2-1.8l1.2-1.8V51.9z
	 M99.1,46.3l0.9-1.1l1.1,1.4h-1.8v-0.3H99.1z M99.1,45.4V44l0.4,0.6L99.1,45.4z M101.5,46.6l-1.2-1.8l1.1-1.6L101.5,46.6z
	 M99.9,40.2l1,1.4h-1.7v-0.4L99.9,40.2z M99.1,40.3v-1.1l0.3,0.5L99.1,40.3z M101.2,41.5l-1.2-1.8l1.1-1.6L101.2,41.5z M99,37.8h0.1
	h1.5l-1,1.4l-0.6-1V37.8z M99,43h0.1h1.6l-1,1.4l-0.9-1.1V43H99z M99,48.1h0.1h1.9l-1.1,1.6l-1-1.2V48.1z M99,72.1h0.1l1.1-1.2
	l1.4,1.4H99V72.1z M99,77.3h0.1l1.2-1.4l1.4,1.5h-2.8v-0.1H99z M93.6,128l2.4-1.8v3.9L93.6,128z M96,130.7v0.5h-6.9l4.1-3L96,130.7z
	 M93.4,127.7l-2.8-2.5h5.5v0.4H96L93.4,127.7z M96,123.6v0.9h-5.4l3.3-3L96,123.6z M94.4,121.1l1.6-1.5v3.3L94.4,121.1z M96,110v0.5
	h-3.4l2-1.6L96,110z M95,108.6l1-0.9v1.6L95,108.6z M96,111.2v0.9l-1.5,1.6l-2-2.5H96z M96,112.8v2.9l-1.2-1.5L96,112.8z
	 M95.9,116.6v1h-4.1l2.6-2.9L95.9,116.6z M97,88.1v0.1h-3.2l1.6-1.8L97,88.1z M94,84.1h3l-1.5,1.5L94,84.1z M95.9,86l1.2-1.4v2.6
	L95.9,86z M94.4,82.6l1.4-1.5l1.2,1.4v0.1H94.4z M96.1,80.6l1-1v1.9L96.1,80.6z M95.9,80.3l-1.4-1.4h2.6L95.9,80.3z M95.7,75.9
	l1.2,1.5h-2.6L95.7,75.9z M95.6,75.2l-1.2-1.4H97L95.6,75.2z M96,75.6l1.1-1.2v2.5L96,75.6z M94.5,72.2l1.5-1.4l1.2,1.2v0.1h-0.1
	h-2.6V72.2z M96.2,70.6l0.9-0.9v1.6L96.2,70.6z M97,66.2l-0.6-0.6l0.6-0.6V66.2z M97.1,61.3l-0.6-0.9l0.6-0.6V61.3z M97.1,41.5h-1.8
	l1-1.4L97.1,41.5z M96.5,39.7l0.5-0.9v1.6L96.5,39.7z M97.1,43l-0.9,1.2l-0.9-1.4L97.1,43z M97.1,43.8v1.8l-0.5-1L97.1,43.8z
	 M97.1,46.6h-1.9l1-1.5L97.1,46.6z M97,48.1l-1.1,1.6l-1-1.6H97z M97.1,48.9v2.6l-0.9-1.4L97.1,48.9z M96,50.7l0.9,1.4H95L96,50.7z
	 M97.1,53.6v0.4l-0.9,1L95,53.6H97.1z M97.1,54.7v1.2l-0.5-0.6L97.1,54.7z M97.1,37.9l-0.9,1.2l-0.9-1.4L97.1,37.9z M95,38l1,1.6
	l-1.1,1.6L95,38z M94.7,43.2l1.1,1.6l-1.1,1.6V43.2z M94.6,48.7l1,1.6l-1.1,1.6L94.6,48.7z M94.5,53.7l1.4,1.5l-1.5,1.5L94.5,53.7z
	 M94.4,57.8v-0.3l1.8-1.9l1,1.1v2.2l-1.1,1.1L94.5,58v-0.2H94.4z M94.4,58.9l1.4,1.5l-1.4,1.5V58.9z M94.2,63.1v-0.4l1.8-1.8
	l1.1,1.2v2L96,65.1l-1.8-1.9V63.1z M94.1,63.8l1.5,1.6L94,67.1L94.1,63.8z M94,68.2v-0.3l1.9-1.9l1.1,1.2V69h0.1L96,70.1L94,68.2
	L94,68.2z M94,68.9l1.5,1.6l-1.7,1.7L94,68.9z M93.7,73.8l1.5,1.8l-1.6,1.8L93.7,73.8z M93.6,78.8l1.8,1.8l-1.8,1.9h-0.1L93.6,78.8z
	 M93.5,84.2l1.6,1.8L93.3,88L93.5,84.2z M96,106.7v0.5l-1.4,1.1l-1.9-1.6H96z M92.4,107.1l1.9,1.5l-2,1.6
	C92.2,109.2,92.2,108.1,92.4,107.1z M92.1,111.6l2,2.6l-2.6,2.9C91.7,115.2,92,113.5,92.1,111.6z M95.9,118.1v0.6H96l-2,1.8
	l-2.4-2.5H95.9z M91.4,118.5l2.4,2.5l-3.1,2.9C90.7,122.2,91,120.3,91.4,118.5z M89.1,129.9c0.4-1.5,0.6-3,1.1-4.5l2.8,2.5l-4.1,3
	C88.9,130.6,89,130.2,89.1,129.9z M96,132.1v0.3l-3.7,2.2l-3.4-2.5H96z M90.4,148.7l5.6-2.2v4.8L90.4,148.7z M96,151.7v0.3H81.5
	l8.3-3.1L96,151.7z M89.7,148.2l-5.5-2.6H96v0.3L89.7,148.2z M84.5,145.1L91,142l4.8,2.8v0.4H84.5V145.1z M91.7,141.7l4.3-2v4.5
	L91.7,141.7z M91.2,141.5l-4.4-2.5h9.2v0.1L91.2,141.5z M87.1,138.1l5.2-3.1l3.7,2.6v0.5H87.1z M92.9,134.8l3.1-1.9v4.3L92.9,134.8z
	 M88.5,132.2l3.4,2.5l-5.2,3C87.4,136,87.9,134.1,88.5,132.2z M86.2,139.1l4.4,2.5l-6.6,3.1C84.9,143,85.6,141,86.2,139.1z
	 M83.7,146.1l5.4,2.5l-7.9,3L83.7,146.1z M92.1,152.7L82,156.8l-1.4-4.1H92.1z M86.1,155.7c-1.4,0.9-2.5,1.9-3.4,3l-0.4-1.4
	L86.1,155.7z M82.1,158.9h-3.9l3.4-1.4L82.1,158.9z M80.2,153l1.4,4l-4.3,1.8L80.2,153z M81.5,159.9l-3.7,3.1l-0.6-3.1H81.5z
	 M77.7,163.5l3.3-2.9c-1.1,1.9-2,4-2.5,6.4L77.7,163.5z M78.2,167.4h-4.8l4-3.4L78.2,167.4z M76.6,160.2l0.6,3.1l-4.1,3.7
	L76.6,160.2z M79.2,168.4c0-0.3,0-0.4,0.1-0.6c1-7.6,8-13.9,16.6-14.6H97h1.5h1.5c8.6,0.9,15.6,7,16.6,14.6c0,0.2,0,0.5,0.1,0.9
	H79.2C79.2,168.5,79.2,168.4,79.2,168.4z"/>
<path d="M204.2,115.7c-3.3,0.8-7,1.1-7,1.1s-2.9-0.5-7.4-2.7c-4-1.9-6.6-4.2-6.6-4.2s-0.2-0.7-0.3-1.6h0.1c0,0,0-0.3-0.1-0.4
	c0.1-0.5,0-0.8-0.1-0.9c0-0.2,0-0.3,0-0.4h0.1v-0.4l1.5-0.1l0.1-0.6l-0.2,0v-0.1c0,0-4,0.8-23,0.8c-19,0-23-0.8-23-0.8v0.1l-0.2,0
	l0.1,0.6l1.5,0.1v0.4h0.1c0,0.1,0,0.3,0,0.4c-0.1,0.1-0.1,0.4-0.1,0.9c-0.1,0.2-0.1,0.4-0.1,0.4h0.1c-0.1,0.9-0.3,1.6-0.3,1.6
	s-2.7,2.2-6.6,4.2c-4.5,2.2-7.3,2.7-7.3,2.7s-3.7-0.3-7-1.1c-3.3-0.7-6.2-1.9-6.2-1.9l0.3,1.9l2.1,0.8v1l1,0.6v1.1l2.4,0.7v0.8
	l-1.3-0.4l-0.2,0.6l1,0.3v1.2c0,0,1.5,0.6,3.5,0.9l-0.7,0.2l0,0.9l2.5-0.7v1l5,0.6v0.7l1.8,0.4v0.4l0.4,0v0.3l2.4,0.3v0.3h0.2v0.7
	h1.3l-0.8,0.2l0,0.9l1.8-0.5l0.1,0.1v0.6h0.3v0.2h4.2v5.5c-1.2,0-7.4,0-9.5,0c0,0,0,0,0-0.1c0-0.1-0.1-0.2-0.2-0.2
	c-0.1,0-0.2,0.1-0.2,0.2c0,0,0,0,0,0.1c-0.1,0-0.2,0-0.3,0c-1,0-1.7-0.3-1.7-0.3s0.1,0.5,0.2,0.6c0,0,0.4,0.1,1.4,0.1l0,0v0.1h0.3
	v0.3h-0.2v0.1h-0.1v0.4l0,0c-1,0-1.7-0.3-1.7-0.3s0.1,0.5,0.2,0.6c0,0,0.4,0.1,1.4,0.1l0,0v1.3H128v0.4h-0.7v1.9h1.6v0.7h2.5v0.5
	h1.1v0.2l-0.8,0.2l0,0.9l1.4-0.4l2.8,0.4v0.5l0.7,0.1v0.9h0.5v2.2h0.3v1.1h-0.5v0.7h-2.3l0.1,0.2l0.8,0.4v0.3l0.4,0.4h0.7v20.8h-2.2
	v1h-3.2v1.3h60.6v-1.3h-3.2v-1h-2.2v-20.8h0.7l0.4-0.4v-0.3l0.7-0.4l0.2-0.2H186v-0.7h-0.5v-1.1h0.3v-2.2h0.5v-0.9l0.7-0.1v-0.5
	l2.8-0.4l1.4,0.4l0-0.9l-0.8-0.2V142h1.1v-0.5h2.5v-0.7h1.6v-1.9h-0.7v-0.4h-1.4v-1.3c1,0,1.4-0.1,1.4-0.1c0.1-0.1,0.2-0.6,0.2-0.6
	s-0.6,0.3-1.7,0.3v-0.4h-0.1v-0.1h-0.1V136h0.3v-0.1c1,0,1.4-0.1,1.4-0.1c0.1-0.1,0.2-0.6,0.2-0.6s-0.6,0.3-1.7,0.3
	c-0.1,0-0.2,0-0.3,0c0,0,0,0,0-0.1c0-0.1-0.1-0.2-0.2-0.2c-0.1,0-0.2,0.1-0.2,0.2c0,0,0,0,0,0.1c-2.1,0-8.3,0-9.5,0v-5.5h4.2v-0.2
	h0.3v-0.6l0.1-0.1l1.8,0.5l0-0.9l-0.8-0.2h1.3v-0.7h0.2v-0.3l2.4-0.3v-0.3l0.4,0v-0.4l1.8-0.4v-0.7l5-0.6v-1l2.5,0.7l0-0.9l-0.7-0.2
	c2-0.4,3.5-0.9,3.5-0.9v-1.2l1-0.3l-0.2-0.6l-1.3,0.4v-0.8l2.4-0.7v-1.1l1.1-0.6v-1l2.1-0.8l0.3-1.9
	C210.5,113.7,207.6,114.9,204.2,115.7z M134.3,138.6h-4v-0.2h4V138.6z M134.3,138.2h-4V138h4V138.2z M134.3,137.8h-4v-0.2h4V137.8z
	 M134.3,137.5h-4v-0.2c1,0,2.5,0,4,0V137.5z M139.1,138.6h-3.9v-0.2h3.9V138.6z M139.1,138.2h-3.9V138h3.9V138.2z M139.1,137.8h-3.9
	v-0.2h3.9V137.8z M139.1,137.5h-3.9v-0.2c1.6,0,3.1,0,3.9,0V137.5z M139.4,136.8c-1.4,0-6.8,0-9.1,0v-0.4h-0.1v-0.1H130V136h0.3
	v-0.1c2.3,0,7.7,0,9.1,0V136.8z M168.1,171.2h-13.4v-21.3h13.4V171.2z M187.6,138.6h-3.9v-0.2h3.9V138.6z M187.6,138.2h-3.9V138h3.9
	V138.2z M187.6,137.8h-3.9v-0.2h3.9V137.8z M187.6,137.5h-3.9v-0.2c0.8,0,2.3,0,3.9,0V137.5z M192.5,138.6h-4v-0.2h4V138.6z
	 M192.5,138.2h-4V138h4V138.2z M192.5,137.8h-4v-0.2h4V137.8z M192.5,137.5h-4v-0.2c1.5,0,3,0,4,0V137.5z M183.4,135.9
	c1.4,0,6.8,0,9.1,0v0.1h0.3v0.3h-0.1v0.1h-0.1v0.4c-2.3,0-7.7,0-9.1,0V135.9z"/>
<rect y="172.2" width="200" height="27.8"/>
</svg>
