<?xml version="1.0" encoding="utf-8"?>
<!-- Generator: Adobe Illustrator 24.0.3, SVG Export Plug-In . SVG Version: 6.00 Build 0)  -->
<svg version="1.1" id="kulinarik" xmlns="http://www.w3.org/2000/svg" xmlns:xlink="http://www.w3.org/1999/xlink" x="0px" y="0px"
	 viewBox="0 0 200 200" style="enable-background:new 0 0 200 200;" xml:space="preserve">
<style type="text/css">
	.st0{fill:#FFFFFF;}
	.st1{fill:#BC002D;}
</style>
<rect id="square" class="st0" width="200" height="200"/>
<g id="kulinarik-2">
	<path d="M-120.3,7.7l-12.2,20.2l219,131.6c0.5,0.3,1.4-0.1,1.9-0.9l3.8-6.8c0.6-1,0.6-1.9,0.1-2.2L-120.3,7.7z"/>
	<path d="M29.9-137.1L9.7-124.9L141.9,93.8c0.3,0.5,1.3,0.5,2.1,0.1l6.6-4.2c1-0.6,1.4-1.4,1.1-2L29.9-137.1z"/>
	<g>
		<g>
			<path class="st0" d="M117.1,162.2c-6.3,0-11.7-1.6-15.1-4.6c-8.4-7.2-20.3-19.5-25.7-27.7c-5.5-8.5-13-28.1-8.3-36.8
				c4-7.5,23.2-26,37.1-26c1.4,0,2.6,0.2,3.8,0.5c11.4,3.3,31.3,22.1,46,37.3c10.9,11.3-1.5,32.5-9.9,44.2
				C139.4,157.1,128.4,162.2,117.1,162.2C117.1,162.2,117.1,162.2,117.1,162.2z"/>
			<path d="M105.1,69.7c1.1,0,2.1,0.1,3.1,0.4c12.4,3.6,35.8,27.2,44.9,36.6c9.1,9.4-0.9,28.1-10.1,41c-5.8,8.1-16.6,12.1-25.9,12.1
				c-5.5,0-10.4-1.4-13.5-4c-8.4-7.2-20-19.3-25.3-27.2c-5.6-8.6-12.2-26.9-8.2-34.3C73.8,87.5,92.5,69.7,105.1,69.7 M105.1,64.7
				c-8.5,0-17.7,5.9-23.9,10.9c-6.7,5.3-13.1,12.1-15.4,16.4c-2.5,4.6-2.4,11.4,0.1,20.4c1.9,6.7,5.1,14,8.3,18.9l0,0l0,0
				c5.8,8.7,17.8,21,26.2,28.2c3.9,3.4,9.9,5.2,16.8,5.2c12.1,0,23.8-5.6,29.9-14.2c4.1-5.7,9.7-14.4,12.6-23.1
				c2.4-7.2,3.9-17.2-3-24.3c-21.6-22.4-37.5-35.1-47.1-37.9C108.2,64.9,106.7,64.7,105.1,64.7L105.1,64.7z"/>
		</g>
		
			<ellipse transform="matrix(0.6794 -0.7338 0.7338 0.6794 -47.7799 118.1666)" class="st1" cx="111.3" cy="113.8" rx="18.3" ry="21.4"/>
	</g>
</g>
</svg>
